# xmcd
#
# Track frame offsets:
#	150
#	21493
#	37645
#	53586
#	70635
#	90779
#	115225
#	135037
#	150343
#	169454
#	191705
#	208480
#
# Disc length: 3007 seconds
#
# Revision: 0
# Processed by: cddbd v1.5.2PL0 Copyright (c) Steve Scherf et al.
# Submitted via: audiograbber 1.83.01
#
DISCID=910bbd0c
DTITLE=Cdpool - Street March 10 CD2
DYEAR=2010
DGENRE=R&B
TTITLE0=Raheem DeVaughn Ft Ludacris - Bulletproof
TTITLE1=Whitney Houston - Nothin' But Love (Radio Edit)
TTITLE2=AYO Ft Ironik and Joelle Moses - Far Away (Radio Edit)
TTITLE3=Rajiv - Don't Give It Up (Original Mix)
TTITLE4=Cool Million Ft Eugene Wilde - Back For More (Album Version)
TTITLE5=Dr Rubberfunk Ft John Turrell - Northern Comfort (Slynk Remix)
TTITLE6=Haynzy Ft Aidonia - Thinkin 'Bout Me (Crazy Cousinz Club Mix)
TTITLE7=Lil H - Take You Away (Video Version)
TTITLE8=Chase Taylor Ft My Mate Dave - Binge Drinker (Explicit)
TTITLE9=Digital Dubstar - Call It Tribal
TTITLE10=Mynority - Street Bounce (Main Mix)
TTITLE11=Groove Chambers - In The Bag (Dirty Version)
EXTD=
EXTT0=
EXTT1=
EXTT2=
EXTT3=
EXTT4=
EXTT5=
EXTT6=
EXTT7=
EXTT8=
EXTT9=
EXTT10=
EXTT11=
PLAYORDER=
